<?xml version="1.0" encoding="UTF-8"?>
<svg xmlns="http://www.w3.org/2000/svg" xmlns:xlink="http://www.w3.org/1999/xlink" viewBox="0 0 477.65 344.77">
  <defs>
    <style>
      .cls-1 {
        fill: url(#Degradado_sin_nombre);
        stroke: url(#Degradado_sin_nombre-2);
      }

      .cls-1, .cls-2, .cls-3, .cls-4, .cls-5, .cls-6, .cls-7, .cls-8 {
        stroke-miterlimit: 10;
      }

      .cls-9 {
        stroke-width: 0px;
      }

      .cls-9, .cls-6 {
        fill: #000;
      }

      .cls-2 {
        fill: blue;
      }

      .cls-2, .cls-3, .cls-4, .cls-5, .cls-8 {
        stroke: #bebebe;
      }

      .cls-10 {
        letter-spacing: -.09em;
      }

      .cls-3 {
        fill: #020202;
        stroke-width: 2px;
      }

      .cls-4 {
        fill: #19e6cf;
      }

      .cls-5, .cls-7 {
        fill: #2af45a;
      }

      .cls-6 {
        font-family: LEMONMILK-LightItalic, 'LEMON MILK';
        font-size: 30px;
        font-style: italic;
        font-weight: 300;
        stroke: #000;
      }

      .cls-7 {
        stroke: #19e6cf;
      }

      .cls-8 {
        fill: #2e2ed2;
      }
    </style>
    <linearGradient id="Degradado_sin_nombre" data-name="Degradado sin nombre" x1="228.64" y1="121.47" x2="313.15" y2="121.47" gradientUnits="userSpaceOnUse">
      <stop offset="0" stop-color="#fff"/>
      <stop offset="1" stop-color="#1d1d1b"/>
    </linearGradient>
    <linearGradient id="Degradado_sin_nombre-2" data-name="Degradado sin nombre" x1="228.11" y1="121.49" x2="313.66" y2="121.49" xlink:href="#Degradado_sin_nombre"/>
  </defs>
  <g id="Capa_1" data-name="Capa 1">
    <path class="cls-8" d="M143.1,47.55c11.15,6.13,22.3,12.26,33.45,18.38l49.79-27.06s6.13,2.3,10.47,4.6,41.87,22.47,41.87,22.47l32.68-17.62L227.23.57l-84.13,46.98Z"/>
    <path class="cls-1" d="M278.93,68.49l34.21-18.13-1.79,94.98-82.72,47.23,1.28-39.06,45.7-26.04s3.57-.26,3.57-8.68-.26-50.3-.26-50.3Z"/>
    <path class="cls-4" d="M141.32,49.68l33.53,19.15v53.45s.85,4.26,3.91,6.3,47.57,26.38,47.57,26.38v38.81l-85.7-49.7.68-94.38Z"/>
    <line class="cls-2" x1="226.34" y1="38.87" x2="227.23" y2="89.81"/>
    <line class="cls-2" x1="244.08" y1="106.53" x2="278.08" y2="125.19"/>
    <line class="cls-2" x1="210.13" y1="106.53" x2="175.79" y2="124.93"/>
    <path class="cls-9" d="M210.13,118.66s-5.81,5.3.77,8.62c1.66.67,2.07.86,2.07.86,0,0,5.36,1.76,12.91-.13s7.96-2.39,7.96-2.39l.48-.43.51-.26,1.02-.85-25.72-5.43Z"/>
    <ellipse class="cls-7" cx="225.88" cy="108.8" rx="18.21" ry="17.84"/>
  </g>
  <g id="Capa_2" data-name="Capa 2">
    <path class="cls-3" d="M124.31,260.59l-2.89,12.56,46.3-.64s6.81.17,8.51-8.51,3.15-14.38,3.15-14.38v-3.32s-.85-3.57-5.36-3.57h-31.91l2.64-9.02h37.87l2.64-11.57-44.68.43s-6.89-.77-8.6,5.02-4.43,17.36-4.43,17.36c0,0-2.13,6.21,5.11,6.72s30.72.26,30.72.26c0,0,1.45,5.96-1.62,9.02l-37.45-.34Z"/>
    <polygon class="cls-3" points="61.58 222.29 64.39 208.25 15.37 208.25 1.24 272.76 18.35 272.76 24.56 244.76 51.97 244.93 55.03 232.85 27.37 232.85 29.5 222.64 30.09 222.64 61.58 222.29"/>
    <path class="cls-3" d="M69.41,222.12l-2.04,11.36h37.4l-5.49,26.94h-25.4s.64-10.34,2.3-10.21,20.55.51,20.55.51l2.3-9.45h-26.3s-8.43-1.28-10.09,6.77-3.83,17.62-3.83,17.62c-.01-.38-2.04,8.04,9.3,7.11,1.04,0,19.17.39,19.17.39l24.13-.39,8.55-39.15.77-5.74s1.79-4.85-8.17-5.23-43.15-.51-43.15-.51Z"/>
    <path class="cls-3" d="M201.54,222.12h14.55l-1.66,9.32s-.13,1.09,1.02,1.12,11.17,0,11.17,0l-2.46,11.94-12.48.16-7.04,33.38-.23,1.02s-.7,1.85,2.94,1.82,16.88-.19,16.88-.19l7.05,5.73-7.7,6.21h-30.26s-5.67-1.16-4.14-8.5,2.39-12.29,2.39-12.29l5.4-27.04-11.49.04,2.77-12.94,11.49.26,1.79-10.04Z"/>
    <polygon class="cls-5" points="229.63 280.27 237.44 286.62 228.29 292.78 238.59 292.94 245.81 287.04 238.66 280.27 229.63 280.27"/>
    <polygon class="cls-5" points="243.22 280.27 249.86 286.85 241.4 292.94 251.81 292.94 259.4 286.61 252.09 280.27 243.22 280.27"/>
    <path class="cls-3" d="M257.56,280.76l5.55,6.17-7.49,6.01h196.85s2.89-.61,2.89-.61c0,0,5.02-.77,6.55-7.15s14.47-63.06,14.47-63.06h-14.72l-8.17,38.64-24.98.3,8.3-38.94h-14.94l-8.81,43.79s-1.66,5.74,4.85,6.26,31.79,1.02,31.79,1.02h.77l-1.88,6.32s-.32,1.02-1.69.99-123.45.1-123.45.1l-65.89.17Z"/>
    <polygon class="cls-3" points="260.31 208.08 276.05 208.08 276.73 255.23 300.82 208.08 315.54 208.08 317.33 253.95 339.71 208.08 354.43 208.08 323.12 272.42 305.41 272.42 303.37 228.76 279.37 272.42 262.35 272.85 260.31 208.08"/>
    <path class="cls-3" d="M359.59,222.12l-2.04,11.36h37.4l-5.49,26.94h-25.4s.64-10.34,2.3-10.21,20.55.51,20.55.51l2.3-9.45h-26.3s-8.43-1.28-10.09,6.77-3.83,17.62-3.83,17.62c-.01-.38-2.04,8.04,9.3,7.11,1.04,0,19.17.39,19.17.39l24.13-.39,8.55-39.15.77-5.74s1.79-4.85-8.17-5.23-43.15-.51-43.15-.51Z"/>
    <text class="cls-6" transform="translate(331.1 336.49)"><tspan x="0" y="0">me</tspan><tspan class="cls-10" x="44.58" y="0">t</tspan><tspan x="58.93" y="0">als </tspan></text>
  </g>
</svg>